<?xml version="1.0" encoding="UTF-8" standalone="no"?><!-- Generator: Gravit.io --><svg xmlns="http://www.w3.org/2000/svg" xmlns:xlink="http://www.w3.org/1999/xlink" style="isolation:isolate" viewBox="0 0 800 800" width="800pt" height="800pt"><defs><clipPath id="_clipPath_grVR9mdzehVO2uY0w9MqtkOH7K09YlWb"><rect width="800" height="800"/></clipPath></defs><g clip-path="url(#_clipPath_grVR9mdzehVO2uY0w9MqtkOH7K09YlWb)"><defs><filter id="k07ayeDdbwGp6SSdmKFIUYwHXLY89Jwk" x="-200%" y="-200%" width="400%" height="400%" filterUnits="objectBoundingBox" color-interpolation-filters="sRGB"><feGaussianBlur xmlns="http://www.w3.org/2000/svg" in="SourceGraphic" stdDeviation="2.146804531419514"/><feOffset xmlns="http://www.w3.org/2000/svg" dx="-6" dy="-2" result="pf_100_offsetBlur"/><feFlood xmlns="http://www.w3.org/2000/svg" flood-color="#000000" flood-opacity="0.65"/><feComposite xmlns="http://www.w3.org/2000/svg" in2="pf_100_offsetBlur" operator="in" result="pf_100_dropShadow"/><feBlend xmlns="http://www.w3.org/2000/svg" in="SourceGraphic" in2="pf_100_dropShadow" mode="normal"/></filter></defs><g filter="url(#k07ayeDdbwGp6SSdmKFIUYwHXLY89Jwk)"><path d=" M 177 272 L 95 272 Q 88.306 272.919 88 277 Q 87.694 281.081 88 283 Q 88.15 286.872 92 287 Q 95.85 287.128 177 287 L 177 272 Z " fill="rgb(0,0,0)" vector-effect="non-scaling-stroke" stroke-width="1" stroke="rgb(0,0,0)" stroke-linejoin="miter" stroke-linecap="square" stroke-miterlimit="3"/></g><defs><filter id="2UAhlo11kPzvxaI3znJYDqw5xBg07C5M" x="-200%" y="-200%" width="400%" height="400%" filterUnits="objectBoundingBox" color-interpolation-filters="sRGB"><feGaussianBlur xmlns="http://www.w3.org/2000/svg" in="SourceGraphic" stdDeviation="2.146804531419514"/><feOffset xmlns="http://www.w3.org/2000/svg" dx="-6" dy="-2" result="pf_100_offsetBlur"/><feFlood xmlns="http://www.w3.org/2000/svg" flood-color="#000000" flood-opacity="0.65"/><feComposite xmlns="http://www.w3.org/2000/svg" in2="pf_100_offsetBlur" operator="in" result="pf_100_dropShadow"/><feBlend xmlns="http://www.w3.org/2000/svg" in="SourceGraphic" in2="pf_100_dropShadow" mode="normal"/></filter></defs><g filter="url(#2UAhlo11kPzvxaI3znJYDqw5xBg07C5M)"><path d=" M 176 336 L 27 336 Q 20.975 336.775 21 341 Q 21.025 345.225 21 346 Q 19.966 350.991 26 351 Q 32.034 351.009 176 351 L 176 336 Z " fill="rgb(0,0,0)" vector-effect="non-scaling-stroke" stroke-width="1" stroke="rgb(0,0,0)" stroke-linejoin="miter" stroke-linecap="square" stroke-miterlimit="3"/></g><path d=" M 497 223 L 497 480 L 191 480 L 192 223 L 497 223 Z " fill="rgb(23,26,26)" vector-effect="non-scaling-stroke" stroke-width="1" stroke="rgb(0,0,0)" stroke-linejoin="miter" stroke-linecap="square" stroke-miterlimit="3"/><defs><filter id="jhPGAuyOUgYZGlh0FtQIdSedH66wRW2i" x="-200%" y="-200%" width="400%" height="400%" filterUnits="objectBoundingBox" color-interpolation-filters="sRGB"><feGaussianBlur xmlns="http://www.w3.org/2000/svg" in="SourceGraphic" stdDeviation="2.146804531419514"/><feOffset xmlns="http://www.w3.org/2000/svg" dx="-6" dy="-2" result="pf_100_offsetBlur"/><feFlood xmlns="http://www.w3.org/2000/svg" flood-color="#000000" flood-opacity="0.65"/><feComposite xmlns="http://www.w3.org/2000/svg" in2="pf_100_offsetBlur" operator="in" result="pf_100_dropShadow"/><feBlend xmlns="http://www.w3.org/2000/svg" in="SourceGraphic" in2="pf_100_dropShadow" mode="normal"/></filter></defs><g filter="url(#jhPGAuyOUgYZGlh0FtQIdSedH66wRW2i)"><path d=" M 721 481 L 735 481 L 736 444 Q 732.05 416.025 718 402 C 703.95 387.975 703.988 387.338 690 381 Q 676.012 374.662 662 376 L 587 272 L 512 272 L 512 209 L 177 208 L 177 272 L 175 481 L 194 481 L 194 408 L 219 408 L 231 408 L 231 392 L 194 392 L 194 352 L 221 352 L 221 336 L 194 336 L 194 287 L 259 287 L 259 272 L 194 272 L 194 223 L 496 223 L 496 481 L 511 481 L 511 287 L 581 287 L 642 373 Q 642.847 373.941 643 375 Q 643.153 376.059 642 377 L 552 376 L 552 317 Q 551.113 312.964 547 313 Q 542.888 313.036 540 313 Q 536.05 313.553 536 317 Q 535.95 320.447 536 385 Q 535.886 388.772 539 390 C 542.114 391.228 543.863 391.787 546 392 Q 548.138 392.213 662 391 Q 676.731 390.247 686 394 C 695.269 397.753 699.469 401.619 705 409 C 710.531 416.381 719.381 428.912 720 434 Q 720.619 439.088 721 481 Z " fill="rgb(0,0,0)" vector-effect="non-scaling-stroke" stroke-width="1" stroke="rgb(0,0,0)" stroke-linejoin="miter" stroke-linecap="square" stroke-miterlimit="3"/></g><path d=" M 321 247 L 249 435 Q 246.963 440.825 249 443 C 251.038 445.175 251.025 445.7 253 446 C 254.975 446.3 257.587 447.075 265 444 Q 272.413 440.925 448 375 Q 450.434 373.959 451 372 Q 451.566 370.041 451 366 Q 428.263 313.525 406 293 C 383.737 272.475 370.663 262.675 352 254 Q 333.337 245.325 328 245 Q 322.363 243.875 321 247 Z " fill="rgb(0,0,0)" vector-effect="non-scaling-stroke" stroke-width="1" stroke="rgb(0,0,0)" stroke-linejoin="miter" stroke-linecap="square" stroke-miterlimit="3"/><path d=" M 376 388 L 348 398 Q 344.731 395.017 343 392 C 341.269 388.983 340.239 386.697 341 380 C 341.761 373.303 342.825 372.463 345 370 C 347.175 367.538 349.263 364.822 353 364 C 356.738 363.178 361.169 362.853 365 364 Q 368.831 365.147 372 370 Q 375.856 373.931 376 381 Q 376.144 388.069 376 388 Z " fill="rgb(255,95,95)" vector-effect="non-scaling-stroke" stroke-width="1" stroke="rgb(0,0,0)" stroke-linejoin="miter" stroke-linecap="square" stroke-miterlimit="3"/><path d=" M 308 413 Q 265.831 431.662 268 426 Q 270.169 420.338 282 387 Q 304.019 388.694 308 413 Z " fill="rgb(255,95,95)" vector-effect="non-scaling-stroke" stroke-width="1" stroke="rgb(0,0,0)" stroke-linejoin="miter" stroke-linecap="square" stroke-miterlimit="3"/><path d=" M 320 292 L 304 326 Q 307.008 327.739 309 328 C 310.992 328.261 321.352 330.692 327 328 C 332.648 325.308 339.086 321.591 341 318 Q 342.914 314.409 345 308 L 320 292 Z " fill="rgb(255,95,95)" vector-effect="non-scaling-stroke" stroke-width="1" stroke="rgb(0,0,0)" stroke-linejoin="miter" stroke-linecap="square" stroke-miterlimit="3"/><defs><filter id="wwnr6gXUazd9qza3o8zt6lbKEWKQKFPw" x="-200%" y="-200%" width="400%" height="400%" filterUnits="objectBoundingBox" color-interpolation-filters="sRGB"><feGaussianBlur xmlns="http://www.w3.org/2000/svg" in="SourceGraphic" stdDeviation="2.146804531419514"/><feOffset xmlns="http://www.w3.org/2000/svg" dx="0" dy="-2" result="pf_100_offsetBlur"/><feFlood xmlns="http://www.w3.org/2000/svg" flood-color="#000000" flood-opacity="0.65"/><feComposite xmlns="http://www.w3.org/2000/svg" in2="pf_100_offsetBlur" operator="in" result="pf_100_dropShadow"/><feBlend xmlns="http://www.w3.org/2000/svg" in="SourceGraphic" in2="pf_100_dropShadow" mode="normal"/></filter></defs><g filter="url(#wwnr6gXUazd9qza3o8zt6lbKEWKQKFPw)"><path d=" M 588 535 L 340 535 L 340 521 L 588 521 L 588 535 Z " fill="rgb(0,0,0)" vector-effect="non-scaling-stroke" stroke-width="1" stroke="rgb(0,0,0)" stroke-linejoin="miter" stroke-linecap="square" stroke-miterlimit="3"/></g><defs><filter id="KmSr3uN8pp3zGZE0Ef44zuBG7xNd9e0j" x="-200%" y="-200%" width="400%" height="400%" filterUnits="objectBoundingBox" color-interpolation-filters="sRGB"><feGaussianBlur xmlns="http://www.w3.org/2000/svg" in="SourceGraphic" stdDeviation="2.146804531419514"/><feOffset xmlns="http://www.w3.org/2000/svg" dx="-6" dy="2" result="pf_100_offsetBlur"/><feFlood xmlns="http://www.w3.org/2000/svg" flood-color="#000000" flood-opacity="0.65"/><feComposite xmlns="http://www.w3.org/2000/svg" in2="pf_100_offsetBlur" operator="in" result="pf_100_dropShadow"/><feBlend xmlns="http://www.w3.org/2000/svg" in="SourceGraphic" in2="pf_100_dropShadow" mode="normal"/></filter></defs><g filter="url(#KmSr3uN8pp3zGZE0Ef44zuBG7xNd9e0j)"><path d=" M 249 481 L 177 481 Q 153 479.15 153 499 Q 153 518.85 153 516 Q 155.25 534.65 175 535 Q 194.75 535.35 236 535 L 249 481 Z " fill="rgb(0,0,0)" vector-effect="non-scaling-stroke" stroke-width="1" stroke="rgb(0,0,0)" stroke-linejoin="miter" stroke-linecap="square" stroke-miterlimit="3"/><clipPath id="_clipPath_ksahhwBfOTWwWjdvGpq2l969uQuaJcWT"><path d=" M 249 481 L 177 481 Q 153 479.15 153 499 Q 153 518.85 153 516 Q 155.25 534.65 175 535 Q 194.75 535.35 236 535 L 249 481 Z " fill="rgb(0,0,0)" vector-effect="non-scaling-stroke" stroke-width="1" stroke="rgb(0,0,0)" stroke-linejoin="miter" stroke-linecap="square" stroke-miterlimit="3"/></clipPath><g clip-path="url(#_clipPath_ksahhwBfOTWwWjdvGpq2l969uQuaJcWT)"/><path d=" M 249 481 L 177 481 Q 153 479.15 153 499 Q 153 518.85 153 516 Q 155.25 534.65 175 535 Q 194.75 535.35 236 535 L 249 481 Z " fill="transparent" vector-effect="non-scaling-stroke" stroke-width="1" stroke="rgb(0,0,0)" stroke-linejoin="miter" stroke-linecap="square" stroke-miterlimit="3"/></g><defs><filter id="IlX9BQELnnpyKBsUADVCdAuA36mGxige" x="-200%" y="-200%" width="400%" height="400%" filterUnits="objectBoundingBox" color-interpolation-filters="sRGB"><feGaussianBlur xmlns="http://www.w3.org/2000/svg" in="SourceGraphic" stdDeviation="2.146804531419514"/><feOffset xmlns="http://www.w3.org/2000/svg" dx="-6" dy="-2" result="pf_100_offsetBlur"/><feFlood xmlns="http://www.w3.org/2000/svg" flood-color="#000000" flood-opacity="0.65"/><feComposite xmlns="http://www.w3.org/2000/svg" in2="pf_100_offsetBlur" operator="in" result="pf_100_dropShadow"/><feBlend xmlns="http://www.w3.org/2000/svg" in="SourceGraphic" in2="pf_100_dropShadow" mode="normal"/></filter></defs><g filter="url(#IlX9BQELnnpyKBsUADVCdAuA36mGxige)"><path d=" M 65 273 L 39 273 Q 33.955 273.284 34 277 Q 34.045 280.716 34 284 Q 35.025 287.027 39 287 Q 42.975 286.973 65 287 Q 70.619 287.355 71 284 Q 71.381 280.645 71 277 Q 69.869 273.019 65 273 Z " fill="rgb(0,0,0)" vector-effect="non-scaling-stroke" stroke-width="1" stroke="rgb(0,0,0)" stroke-linejoin="miter" stroke-linecap="square" stroke-miterlimit="3"/></g><path d=" M 249 481 L 239 495 L 177 495 Q 168.25 499.15 168 505 Q 167.75 510.85 168 511 Q 170.5 519.775 177 520 Q 183.5 520.225 233 520 L 239 495 L 249 481 Z " fill="rgb(162,162,162)" vector-effect="non-scaling-stroke" stroke-width="1" stroke="rgb(0,0,0)" stroke-linejoin="miter" stroke-linecap="square" stroke-miterlimit="3"/><defs><filter id="vyk6BLDiZSt3kErXPYI7tqU1lZwjCcQU" x="-200%" y="-200%" width="400%" height="400%" filterUnits="objectBoundingBox" color-interpolation-filters="sRGB"><feGaussianBlur xmlns="http://www.w3.org/2000/svg" in="SourceGraphic" stdDeviation="2.146804531419514"/><feOffset xmlns="http://www.w3.org/2000/svg" dx="0" dy="-2" result="pf_100_offsetBlur"/><feFlood xmlns="http://www.w3.org/2000/svg" flood-color="#000000" flood-opacity="0.65"/><feComposite xmlns="http://www.w3.org/2000/svg" in2="pf_100_offsetBlur" operator="in" result="pf_100_dropShadow"/><feBlend xmlns="http://www.w3.org/2000/svg" in="SourceGraphic" in2="pf_100_dropShadow" mode="normal"/></filter></defs><g filter="url(#vyk6BLDiZSt3kErXPYI7tqU1lZwjCcQU)"><path d=" M 692 535 L 735 535 Q 759.038 524.097 759 515 Q 758.963 505.903 759 502 Q 754.191 481.025 735 481 Q 715.809 480.975 673 481 L 692 535 Z " fill="rgb(0,0,0)" vector-effect="non-scaling-stroke" stroke-width="1" stroke="rgb(0,0,0)" stroke-linejoin="miter" stroke-linecap="square" stroke-miterlimit="3"/></g><path d=" M 690 497 L 690 495 L 736 495 Q 744.941 496.969 745 504 C 745.059 511.031 747.573 519.828 737 520 Q 726.427 520.172 694 520 L 690 497 Z " fill="rgb(162,162,162)" vector-effect="non-scaling-stroke" stroke-width="1" stroke="rgb(0,0,0)" stroke-linejoin="miter" stroke-linecap="square" stroke-miterlimit="3"/><path d=" M 337 496 L 343 520 L 586 520 L 594 496 L 337 496 Z " fill="rgb(139,139,139)" vector-effect="non-scaling-stroke" stroke-width="1" stroke="rgb(0,0,0)" stroke-linejoin="miter" stroke-linecap="square" stroke-miterlimit="3"/><path d=" M 642 377 L 552 376 L 552 318 Q 551.539 313.053 547 313 Q 542.461 312.947 542 313 Q 536.219 312.506 536 318 Q 535.781 323.494 536 385 Q 535.352 392.092 551 392 Q 566.648 391.908 667 391 Q 689.453 391.005 701 404 Q 712.547 416.995 720 434 Q 721.156 443.028 721 451 Q 720.844 458.972 721 480 L 678 480 L 510 481 L 510 287 L 580 287 Q 580.798 287.516 586 295 Q 591.202 302.484 609 327 L 642 373 Q 644.002 374.903 642 377 Z " fill="rgb(23,26,26)" vector-effect="non-scaling-stroke" stroke-width="1" stroke="rgb(0,0,0)" stroke-linejoin="miter" stroke-linecap="square" stroke-miterlimit="3"/><ellipse vector-effect="non-scaling-stroke" cx="288.0000000000001" cy="519.5" rx="55.00000000000006" ry="55.50000000000023" fill="rgb(0,0,0)"/><ellipse vector-effect="non-scaling-stroke" cx="287.49999999999994" cy="520" rx="41.50000000000004" ry="41" fill="rgb(255,255,255)"/><ellipse vector-effect="non-scaling-stroke" cx="287.50000000000006" cy="520" rx="23.500000000000057" ry="23" fill="rgb(0,0,0)"/><circle vector-effect="non-scaling-stroke" cx="288" cy="520" r="12.5" fill="rgb(96,125,139)"/><ellipse vector-effect="non-scaling-stroke" cx="640" cy="520.1125000000197" rx="55" ry="55.50000000000023" fill="rgb(0,0,0)"/><ellipse vector-effect="non-scaling-stroke" cx="639.4999999999999" cy="520.6125000000198" rx="41.5" ry="41" fill="rgb(255,255,255)"/><ellipse vector-effect="non-scaling-stroke" cx="639.5" cy="520.6125000000198" rx="23.5" ry="23" fill="rgb(0,0,0)"/><circle vector-effect="non-scaling-stroke" cx="639.9999999999999" cy="520.6125000000198" r="12.5" fill="rgb(96,125,139)"/><path d=" M 327 481 L 605 481 L 605 495 L 327 495 L 327 481 Z " fill="rgb(0,0,0)" vector-effect="non-scaling-stroke" stroke-width="1" stroke="rgb(0,0,0)" stroke-linejoin="miter" stroke-linecap="square" stroke-miterlimit="3"/><path d=" M 389 382 L 403 376 Q 385.8 347.05 371 333 Q 356.2 318.95 356 319 Q 347.375 335.45 337 339 Q 326.625 342.55 302 340 L 289 373 Q 300.725 375.5 308 383 C 315.275 390.5 322.725 406.25 322 407 L 334 403 Q 322.6 382.875 328 372 C 333.4 361.125 337.425 355.175 350 349 Q 362.575 342.825 375 352 Q 384.3 358.425 387 366 Q 389.7 373.575 389 382 Z " fill="rgb(255,191,0)" vector-effect="non-scaling-stroke" stroke-width="1" stroke="rgb(0,0,0)" stroke-linejoin="miter" stroke-linecap="square" stroke-miterlimit="3"/><path d=" M 435 364 Q 433.625 365.75 418 370 Q 397 334.15 374 313 Q 351 291.85 326 279 L 332 261 Q 371.575 276.125 395 303 C 418.425 329.875 436.375 362.25 435 364 Z " fill="rgb(159,118,82)" vector-effect="non-scaling-stroke" stroke-width="1" stroke="rgb(0,0,0)" stroke-linejoin="miter" stroke-linecap="square" stroke-miterlimit="3"/><defs><filter id="MtUhOe9cP8LPhruUksMeShjPqfO8YqVK" x="-200%" y="-200%" width="400%" height="400%" filterUnits="objectBoundingBox" color-interpolation-filters="sRGB"><feGaussianBlur xmlns="http://www.w3.org/2000/svg" in="SourceGraphic" stdDeviation="2.146804531419514"/><feOffset xmlns="http://www.w3.org/2000/svg" dx="-6" dy="-2" result="pf_100_offsetBlur"/><feFlood xmlns="http://www.w3.org/2000/svg" flood-color="#000000" flood-opacity="0.65"/><feComposite xmlns="http://www.w3.org/2000/svg" in2="pf_100_offsetBlur" operator="in" result="pf_100_dropShadow"/><feBlend xmlns="http://www.w3.org/2000/svg" in="SourceGraphic" in2="pf_100_dropShadow" mode="normal"/></filter></defs><g filter="url(#MtUhOe9cP8LPhruUksMeShjPqfO8YqVK)"><path d=" M 176 392 L 87 392 Q 80.95 392.025 81 397 Q 81.05 401.975 81 403 Q 79.825 407.9 86 408 Q 92.175 408.1 177 408 L 176 392 Z " fill="rgb(0,0,0)" vector-effect="non-scaling-stroke" stroke-width="1" stroke="rgb(0,0,0)" stroke-linejoin="miter" stroke-linecap="square" stroke-miterlimit="3"/></g></g></svg>